<svg xmlns="http://www.w3.org/2000/svg" width="24.812" height="30" viewBox="3691.493 686.667 24.812 30"><path d="M3707.305 711.028v-3.542c0-.752-.218-1.128-.654-1.128-.256 0-.504.121-.745.361v5.053c.241.241.489.361.745.361.436 0 .654-.369.654-1.105Zm4.15-2.752h1.49v-.767c0-.767-.249-1.151-.745-1.151-.497 0-.745.384-.745 1.151v.767Zm-12.88-6v1.579h-1.804v9.541h-1.669v-9.541h-1.759v-1.579h5.233Zm4.534 2.842v8.278h-1.511v-.902c-.586.676-1.158 1.015-1.714 1.015-.496 0-.812-.211-.947-.632-.091-.24-.136-.646-.136-1.218v-6.541h1.489v6.09c0 .361.007.556.022.586.016.226.128.339.339.339.3 0 .616-.233.947-.699v-6.316h1.51Zm5.685 2.504v3.293c0 .782-.053 1.331-.158 1.646-.18.632-.58.948-1.196.948-.526 0-1.037-.309-1.534-.925v.812h-1.511v-11.12h1.511v3.631c.482-.601.993-.902 1.534-.902.617 0 1.015.316 1.196.947.105.316.158.873.158 1.67Zm5.661 2.909v.203c0 .436-.015.76-.045.97a2.129 2.129 0 0 1-.338.903c-.406.601-1.008.902-1.805.902-.782 0-1.391-.286-1.827-.857-.315-.406-.473-1.053-.473-1.94v-2.91c0-.887.15-1.534.451-1.94.436-.571 1.037-.857 1.804-.857.767 0 1.354.286 1.76.857.315.421.473 1.068.473 1.94v1.714h-3v1.466c0 .767.256 1.151.767 1.151.361 0 .587-.196.677-.587l.01-.158a4.41 4.41 0 0 0 .013-.372v-.485h1.533Zm-10.173-18.586v3.519c0 .767-.24 1.15-.721 1.15-.482 0-.722-.383-.722-1.15v-3.519c0-.782.24-1.173.722-1.173.481 0 .721.391.721 1.173Zm12.023 16.083c0-2.662-.143-4.617-.429-5.865a3.078 3.078 0 0 0-.97-1.658 3.039 3.039 0 0 0-1.714-.778c-2.045-.226-5.143-.339-9.293-.339-4.135 0-7.226.113-9.271.339a3.005 3.005 0 0 0-1.725.778c-.489.444-.809.996-.959 1.658-.3 1.308-.451 3.263-.451 5.865 0 2.646.15 4.601.451 5.864.15.647.47 1.196.96 1.647a2.954 2.954 0 0 0 1.702.789c2.06.226 5.158.339 9.293.339 4.135 0 7.233-.113 9.293-.339a2.957 2.957 0 0 0 1.703-.789c.489-.451.808-1 .959-1.647.301-1.263.45-3.218.45-5.864Zm-17.03-14.685 2.03-6.676h-1.692l-1.15 4.398-1.196-4.398h-1.759l.541 1.556.52 1.556c.525 1.549.87 2.737 1.037 3.564v4.534h1.669v-4.534Zm6.519 1.827v-2.932c0-.872-.158-1.526-.474-1.962-.436-.572-1.023-.857-1.759-.857-.767 0-1.354.285-1.76.857-.316.436-.473 1.09-.473 1.962v2.932c0 .873.157 1.527.473 1.963.406.571.993.857 1.76.857.736 0 1.323-.286 1.76-.857.315-.406.473-1.06.473-1.963Zm4.082 2.707h1.512v-8.346h-1.512v6.384c-.33.466-.646.699-.947.699-.226 0-.346-.12-.36-.361-.016-.03-.023-.225-.023-.586v-6.136h-1.512v6.609c0 .557.045.97.136 1.241.165.406.488.609.97.609.54 0 1.12-.338 1.736-1.015v.902Z" fill="#3d58a6" fill-rule="evenodd" data-name="Path 2"/></svg>